<svg width="1440" height="194" viewBox="0 0 1440 194" fill="none" xmlns="http://www.w3.org/2000/svg">
<g filter="url(#filter0_d_4_34)">
<path d="M288 34.8716C110.5 66.5 -14.698 76.7724 3.4531 -16.6284L1440 -12C1392.93 85.7339 1282.74 145.246 1253 110.588C1192 39.5 1085.37 177.147 1031 122C934.022 23.6398 816.305 268.035 741 130C681.328 20.6216 643.494 88.7328 574.254 110.588C234.428 217.853 489.956 -1.11457 288 34.8716Z" fill="url(#paint0_radial_4_34)" fill-opacity="0.15" shape-rendering="crispEdges"/>
<path d="M288 34.8716C110.5 66.5 -14.698 76.7724 3.4531 -16.6284L1440 -12C1392.93 85.7339 1282.74 145.246 1253 110.588C1192 39.5 1085.37 177.147 1031 122C934.022 23.6398 816.305 268.035 741 130C681.328 20.6216 643.494 88.7328 574.254 110.588C234.428 217.853 489.956 -1.11457 288 34.8716Z" fill="#D8D8D8" fill-opacity="0.2" shape-rendering="crispEdges"/>
<path d="M288 34.8716C110.5 66.5 -14.698 76.7724 3.4531 -16.6284L1440 -12C1392.93 85.7339 1282.74 145.246 1253 110.588C1192 39.5 1085.37 177.147 1031 122C934.022 23.6398 816.305 268.035 741 130C681.328 20.6216 643.494 88.7328 574.254 110.588C234.428 217.853 489.956 -1.11457 288 34.8716Z" stroke="white" stroke-opacity="0.03" stroke-width="12" shape-rendering="crispEdges"/>
</g>
<defs>
<filter id="filter0_d_4_34" x="-8.28983" y="-22.6443" width="1461.83" height="216.021" filterUnits="userSpaceOnUse" color-interpolation-filters="sRGB">
<feFlood flood-opacity="0" result="BackgroundImageFix"/>
<feColorMatrix in="SourceAlpha" type="matrix" values="0 0 0 0 0 0 0 0 0 0 0 0 0 0 0 0 0 0 127 0" result="hardAlpha"/>
<feOffset dy="10"/>
<feGaussianBlur stdDeviation="2"/>
<feComposite in2="hardAlpha" operator="out"/>
<feColorMatrix type="matrix" values="0 0 0 0 0 0 0 0 0 0 0 0 0 0 0 0 0 0 0.25 0"/>
<feBlend mode="normal" in2="BackgroundImageFix" result="effect1_dropShadow_4_34"/>
<feBlend mode="normal" in="SourceGraphic" in2="effect1_dropShadow_4_34" result="shape"/>
</filter>
<radialGradient id="paint0_radial_4_34" cx="0" cy="0" r="1" gradientUnits="userSpaceOnUse" gradientTransform="translate(460.5 57.9997) rotate(3.08501) scale(854.739 5342.26)">
<stop stop-color="#231919"/>
<stop offset="1" stop-color="#FF6363" stop-opacity="0"/>
</radialGradient>
</defs>
</svg>
